<?xml version="1.0" encoding="utf-8"?>
<!-- Generator: Adobe Illustrator 16.0.0, SVG Export Plug-In . SVG Version: 6.00 Build 0)  -->
<!DOCTYPE svg PUBLIC "-//W3C//DTD SVG 1.1//EN" "http://www.w3.org/Graphics/SVG/1.1/DTD/svg11.dtd">
<svg version="1.1" xmlns="http://www.w3.org/2000/svg" xmlns:xlink="http://www.w3.org/1999/xlink" x="0px" y="0px" width="50px"
	 height="50px" viewBox="0 0 50 50" enable-background="new 0 0 50 50" xml:space="preserve">
<g id="background">
	<g id="XMLID_8_">
		<path id="XMLID_10_" fill="#1B1464" d="M44.016,38.814c0.835,0,1.486-0.652,1.486-1.485V13.6c0-0.832-0.651-1.485-1.486-1.485
			H6.593c-0.834,0-1.484,0.653-1.484,1.485v23.729c0,0.833,0.65,1.485,1.484,1.485H44.016z M8.077,15.049h34.49v3.767H8.077V15.049z
			 M8.077,25.447h34.49v10.396H8.077V25.447z"/>
		<path id="XMLID_9_" fill="#1B1464" d="M34.924,32.692c0.47,0.433,1.122,0.724,1.81,0.724c1.451,0,2.646-1.195,2.646-2.645
			c0-1.45-1.194-2.645-2.646-2.645c-0.688,0-1.34,0.29-1.81,0.725c-0.472-0.435-1.124-0.725-1.812-0.725
			c-1.448,0-2.645,1.195-2.645,2.645c0,1.449,1.196,2.645,2.645,2.645C33.8,33.416,34.452,33.125,34.924,32.692z"/>
	</g>
</g>
<g id="menu">
</g>
<g id="form">
</g>
<g id="mag_page">
</g>
<g id="product_page">
</g>
<g id="slide2" display="none">
</g>
<g id="slide3" display="none">
</g>
<g id="slide4" display="none">
</g>
<g id="slide5" display="none">
</g>
</svg>
