<?xml version="1.0" encoding="utf-8"?>
<!-- Generator: Adobe Illustrator 16.0.0, SVG Export Plug-In . SVG Version: 6.00 Build 0)  -->
<!DOCTYPE svg PUBLIC "-//W3C//DTD SVG 1.1//EN" "http://www.w3.org/Graphics/SVG/1.1/DTD/svg11.dtd">
<svg version="1.1" xmlns="http://www.w3.org/2000/svg" xmlns:xlink="http://www.w3.org/1999/xlink" x="0px" y="0px" width="50px"
	 height="50px" viewBox="0 0 50 50" enable-background="new 0 0 50 50" xml:space="preserve">
<g id="background">
	<g>
		<circle fill="none" stroke="#85CE6E" stroke-width="2" stroke-miterlimit="10" cx="25.042" cy="25.603" r="18.703"/>
		<path fill="#85CE6E" d="M38.64,25.603c0-7.508-6.087-13.596-13.598-13.596c-7.509,0-13.596,6.088-13.596,13.596
			c0,7.512,6.087,13.598,13.596,13.598C32.553,39.201,38.64,33.115,38.64,25.603z"/>
		<g>
			<g>
				<path fill="#FFFFFF" d="M15.964,25.747c2.848,1.144,4.597,3.178,5.816,5.923c0.235,0.531,1.034,0.446,1.295,0
					c2.812-4.816,6.704-8.711,10.852-12.383c0.726-0.642-0.339-1.699-1.061-1.061c-4.244,3.756-8.212,7.765-11.086,12.687
					c0.432,0,0.863,0,1.295,0c-1.391-3.132-3.526-5.332-6.713-6.612C15.464,23.94,15.078,25.391,15.964,25.747L15.964,25.747z"/>
			</g>
		</g>
	</g>
</g>
<g id="menu">
</g>
<g id="form">
</g>
<g id="mag_page">
</g>
<g id="product_page">
</g>
<g id="slide2" display="none">
</g>
<g id="slide3" display="none">
</g>
<g id="slide4" display="none">
</g>
<g id="slide5" display="none">
</g>
</svg>
