<?xml version="1.0" encoding="utf-8"?>
<!-- Generator: Adobe Illustrator 16.0.0, SVG Export Plug-In . SVG Version: 6.00 Build 0)  -->
<!DOCTYPE svg PUBLIC "-//W3C//DTD SVG 1.1//EN" "http://www.w3.org/Graphics/SVG/1.1/DTD/svg11.dtd">
<svg version="1.1" xmlns="http://www.w3.org/2000/svg" xmlns:xlink="http://www.w3.org/1999/xlink" x="0px" y="0px" width="50px"
	 height="50px" viewBox="0 0 50 50" enable-background="new 0 0 50 50" xml:space="preserve">
<g id="background">
	<g>
		<g>
			<g>
				<path fill="#1B1464" d="M32.171,42.508c0,0-0.792-0.671-1.227-1.108c-0.436-0.434-0.554-0.504-0.554-0.504l-0.344-3.23h-9.6
					L20.1,40.9c0,0-0.117,0.332-0.555,0.765c-0.435,0.436-1.226,0.979-1.226,0.979s-0.714,1.104,0.355,1.263
					c0.613,0.092,3.341,0.759,5.536,0.759h2.071c2.239,0,4.925-0.735,5.536-0.823C32.887,43.685,32.171,42.508,32.171,42.508z"/>
				<path fill="#1B1464" d="M46.951,7.666H3.508C2.885,7.666,3.5,8.742,3.5,9.379v25.893c0,0.64-0.615,0.395,0.008,0.395h16.071
					h0.924h9.487h0.967h15.994c0.622,0,0.549,0.245,0.549-0.395V9.379C47.5,8.742,47.573,7.666,46.951,7.666z M45.5,34.666h-40v-22
					h40V34.666z"/>
			</g>
			<rect x="6.5" y="13.666" opacity="0.3" fill="#1B1464" width="38" height="4"/>
			<rect x="8.5" y="20.666" opacity="0.3" fill="#1B1464" width="8" height="6"/>
			<rect x="17.5" y="20.666" opacity="0.3" fill="#1B1464" width="6" height="6"/>
			<rect x="25.5" y="20.666" opacity="0.3" fill="#1B1464" width="7" height="5"/>
			<rect x="33.5" y="20.666" opacity="0.3" fill="#1B1464" width="8" height="6"/>
			<rect x="8.5" y="28.666" opacity="0.3" fill="#1B1464" width="8" height="6"/>
			<rect x="17.5" y="28.666" opacity="0.3" fill="#1B1464" width="7" height="6"/>
			<rect x="25.5" y="28.666" opacity="0.3" fill="#1B1464" width="7" height="6"/>
			<rect x="33.5" y="28.666" opacity="0.3" fill="#1B1464" width="8" height="6"/>
			<g>
				<g>
					<path fill="#FFFFFF" d="M33.42,22.254c0-0.256,0.646-0.539,0.623-0.79c-0.023-0.254-0.71-0.416-0.756-0.663
						c-0.047-0.251,0.535-0.648,0.466-0.891c-0.069-0.245-0.773-0.276-0.865-0.512c-0.092-0.237,0.407-0.735,0.294-0.961
						c-0.113-0.227-0.812-0.127-0.945-0.342c-0.134-0.216,0.265-0.797,0.112-0.999c-0.153-0.202-0.821,0.023-0.992-0.164
						c-0.171-0.188,0.114-0.832-0.072-1.002c-0.188-0.171-0.804,0.172-1.005,0.019c-0.201-0.152-0.038-0.838-0.254-0.972
						c-0.215-0.133-0.756,0.317-0.984,0.204c-0.225-0.113-0.191-0.817-0.428-0.909s-0.686,0.451-0.931,0.382
						c-0.241-0.069-0.338-0.767-0.589-0.814c-0.247-0.046-0.589,0.571-0.843,0.547c-0.251-0.023-0.474-0.691-0.73-0.691
						c-0.256,0-0.479,0.668-0.729,0.691c-0.255,0.023-0.597-0.593-0.844-0.547c-0.251,0.047-0.348,0.745-0.59,0.814
						c-0.245,0.069-0.694-0.474-0.93-0.382c-0.237,0.092-0.203,0.796-0.43,0.909c-0.228,0.113-0.77-0.337-0.984-0.204
						c-0.216,0.134-0.053,0.819-0.254,0.972c-0.203,0.153-0.817-0.19-1.005-0.02c-0.188,0.171,0.099,0.815-0.072,1.003
						c-0.171,0.187-0.839-0.038-0.992,0.164c-0.152,0.202,0.247,0.783,0.112,0.999c-0.133,0.215-0.831,0.116-0.944,0.344
						c-0.112,0.226,0.386,0.723,0.294,0.96c-0.091,0.235-0.795,0.267-0.864,0.512c-0.069,0.242,0.513,0.639,0.466,0.89
						c-0.046,0.247-0.732,0.408-0.756,0.663c-0.022,0.25,0.623,0.533,0.623,0.79s-0.646,0.539-0.623,0.79
						c0.023,0.254,0.71,0.416,0.757,0.663c0.046,0.251-0.536,0.647-0.467,0.89c0.069,0.245,0.773,0.277,0.864,0.512
						c0.093,0.237-0.406,0.735-0.293,0.962s0.811,0.127,0.944,0.342c0.134,0.216-0.265,0.797-0.112,0.999
						c0.153,0.202,0.821-0.023,0.992,0.164s-0.114,0.832,0.072,1.002c0.188,0.17,0.802-0.173,1.005-0.02
						c0.201,0.152,0.039,0.838,0.256,0.972c0.215,0.133,0.756-0.317,0.983-0.204c0.226,0.113,0.19,0.816,0.428,0.908
						c0.235,0.092,0.685-0.451,0.93-0.381c0.242,0.069,0.339,0.767,0.59,0.813c0.247,0.046,0.588-0.57,0.842-0.547
						c0.252,0.023,0.476,0.691,0.731,0.691S26,30.143,26.25,30.12c0.254-0.023,0.596,0.593,0.844,0.547
						c0.25-0.047,0.347-0.746,0.589-0.814c0.245-0.069,0.694,0.473,0.931,0.382c0.236-0.092,0.203-0.796,0.43-0.909
						c0.227-0.113,0.769,0.337,0.983,0.204c0.216-0.134,0.053-0.82,0.254-0.973c0.203-0.153,0.818,0.191,1.005,0.02
						c0.188-0.171-0.099-0.815,0.072-1.002c0.171-0.188,0.839,0.038,0.992-0.164c0.152-0.202-0.246-0.784-0.112-0.999
						c0.134-0.215,0.831-0.115,0.944-0.343c0.113-0.226-0.386-0.723-0.294-0.96c0.091-0.235,0.795-0.267,0.864-0.512
						c0.069-0.242-0.513-0.64-0.466-0.891c0.047-0.247,0.733-0.408,0.757-0.663C34.065,22.794,33.42,22.511,33.42,22.254z"/>
					<path fill="none" stroke="#1B1464" stroke-miterlimit="10" d="M33.42,22.254c0-0.256,0.646-0.539,0.623-0.79
						c-0.023-0.254-0.71-0.416-0.756-0.663c-0.047-0.251,0.535-0.648,0.466-0.891c-0.069-0.245-0.773-0.276-0.865-0.512
						c-0.092-0.237,0.407-0.735,0.294-0.961c-0.113-0.227-0.812-0.127-0.945-0.342c-0.134-0.216,0.265-0.797,0.112-0.999
						c-0.153-0.202-0.821,0.023-0.992-0.164c-0.171-0.188,0.114-0.832-0.072-1.002c-0.188-0.171-0.804,0.172-1.005,0.019
						c-0.201-0.152-0.038-0.838-0.254-0.972c-0.215-0.133-0.756,0.317-0.984,0.204c-0.225-0.113-0.191-0.817-0.428-0.909
						s-0.686,0.451-0.931,0.382c-0.241-0.069-0.338-0.767-0.589-0.814c-0.247-0.046-0.589,0.571-0.843,0.547
						c-0.251-0.023-0.474-0.691-0.73-0.691c-0.256,0-0.479,0.668-0.729,0.691c-0.255,0.023-0.597-0.593-0.844-0.547
						c-0.251,0.047-0.348,0.745-0.59,0.814c-0.245,0.069-0.694-0.474-0.93-0.382c-0.237,0.092-0.203,0.796-0.43,0.909
						c-0.228,0.113-0.77-0.337-0.984-0.204c-0.216,0.134-0.053,0.819-0.254,0.972c-0.203,0.153-0.817-0.19-1.005-0.02
						c-0.188,0.171,0.099,0.815-0.072,1.003c-0.171,0.187-0.839-0.038-0.992,0.164c-0.152,0.202,0.247,0.783,0.112,0.999
						c-0.133,0.215-0.831,0.116-0.944,0.344c-0.112,0.226,0.386,0.723,0.294,0.96c-0.091,0.235-0.795,0.267-0.864,0.512
						c-0.069,0.242,0.513,0.639,0.466,0.89c-0.046,0.247-0.732,0.408-0.756,0.663c-0.022,0.25,0.623,0.533,0.623,0.79
						s-0.646,0.539-0.623,0.79c0.023,0.254,0.71,0.416,0.757,0.663c0.046,0.251-0.536,0.647-0.467,0.89
						c0.069,0.245,0.773,0.277,0.864,0.512c0.093,0.237-0.406,0.735-0.293,0.962s0.811,0.127,0.944,0.342
						c0.134,0.216-0.265,0.797-0.112,0.999c0.153,0.202,0.821-0.023,0.992,0.164s-0.114,0.832,0.072,1.002
						c0.188,0.17,0.802-0.173,1.005-0.02c0.201,0.152,0.039,0.838,0.256,0.972c0.215,0.133,0.756-0.317,0.983-0.204
						c0.226,0.113,0.19,0.816,0.428,0.908c0.235,0.092,0.685-0.451,0.93-0.381c0.242,0.069,0.339,0.767,0.59,0.813
						c0.247,0.046,0.588-0.57,0.842-0.547c0.252,0.023,0.476,0.691,0.731,0.691S26,30.143,26.25,30.12
						c0.254-0.023,0.596,0.593,0.844,0.547c0.25-0.047,0.347-0.746,0.589-0.814c0.245-0.069,0.694,0.473,0.931,0.382
						c0.236-0.092,0.203-0.796,0.43-0.909c0.227-0.113,0.769,0.337,0.983,0.204c0.216-0.134,0.053-0.82,0.254-0.973
						c0.203-0.153,0.818,0.191,1.005,0.02c0.188-0.171-0.099-0.815,0.072-1.002c0.171-0.188,0.839,0.038,0.992-0.164
						c0.152-0.202-0.246-0.784-0.112-0.999c0.134-0.215,0.831-0.115,0.944-0.343c0.113-0.226-0.386-0.723-0.294-0.96
						c0.091-0.235,0.795-0.267,0.864-0.512c0.069-0.242-0.513-0.64-0.466-0.891c0.047-0.247,0.733-0.408,0.757-0.663
						C34.065,22.794,33.42,22.511,33.42,22.254z"/>
				</g>
			</g>
		</g>
		<rect x="16.171" y="18.585" fill="none" width="18.147" height="18.148"/>
		<text transform="matrix(1 0 0 1 21.8955 25.3911)" fill="#1B1464" font-family="'Roboto-Bold'" font-size="9.074">%</text>
	</g>
</g>
<g id="menu">
</g>
<g id="form">
</g>
<g id="mag_page">
</g>
<g id="product_page">
</g>
<g id="slide2" display="none">
</g>
<g id="slide3" display="none">
</g>
<g id="slide4" display="none">
</g>
<g id="slide5" display="none">
</g>
</svg>
